<mxfile host="Electron" modified="2024-01-26T16:56:52.715Z" agent="Mozilla/5.0 (Macintosh; Intel Mac OS X 10_15_7) AppleWebKit/537.36 (KHTML, like Gecko) draw.io/22.1.21 Chrome/120.0.6099.109 Electron/28.1.0 Safari/537.36" etag="CJJ-je1Awlfs-JnUCS8g" version="22.1.21" type="device">
  <diagram name="Page-1" id="GZ6Xc4gL-wkywrB05dhU">
    <mxGraphModel dx="1272" dy="969" grid="1" gridSize="10" guides="1" tooltips="1" connect="1" arrows="1" fold="1" page="1" pageScale="1" pageWidth="1600" pageHeight="900" math="0" shadow="0">
      <root>
        <mxCell id="0" />
        <mxCell id="1" parent="0" />
        <mxCell id="pgmPe74vbzYAncXkuw_j-2" value="" style="strokeWidth=1;shadow=0;dashed=0;align=center;html=1;shape=mxgraph.mockup.containers.browserWindow;rSize=0;strokeColor=#666666;strokeColor2=#008cff;strokeColor3=#c4c4c4;mainText=,;recursiveResize=0;" vertex="1" parent="1">
          <mxGeometry x="50" y="140" width="550" height="380" as="geometry" />
        </mxCell>
        <mxCell id="pgmPe74vbzYAncXkuw_j-3" value="Sujeet" style="strokeWidth=1;shadow=0;dashed=0;align=center;html=1;shape=mxgraph.mockup.containers.anchor;fontSize=17;fontColor=#666666;align=left;whiteSpace=wrap;" vertex="1" parent="pgmPe74vbzYAncXkuw_j-2">
          <mxGeometry x="60" y="12" width="110" height="26" as="geometry" />
        </mxCell>
        <mxCell id="pgmPe74vbzYAncXkuw_j-4" value="https://sujeet.pro" style="strokeWidth=1;shadow=0;dashed=0;align=center;html=1;shape=mxgraph.mockup.containers.anchor;rSize=0;fontSize=17;fontColor=#666666;align=left;" vertex="1" parent="pgmPe74vbzYAncXkuw_j-2">
          <mxGeometry x="130" y="60" width="250" height="26" as="geometry" />
        </mxCell>
        <mxCell id="pgmPe74vbzYAncXkuw_j-5" value="Google Tag Manager (Container Type: Web): GA4 client" style="fillColor=none;strokeColor=#5A6C86;dashed=1;verticalAlign=top;fontStyle=0;fontColor=#5A6C86;whiteSpace=wrap;html=1;" vertex="1" parent="pgmPe74vbzYAncXkuw_j-2">
          <mxGeometry x="30" y="170" width="470" height="180" as="geometry" />
        </mxCell>
        <mxCell id="pgmPe74vbzYAncXkuw_j-11" value="Configuration Parameter" style="text;html=1;strokeColor=none;fillColor=none;align=center;verticalAlign=middle;whiteSpace=wrap;rounded=0;" vertex="1" parent="pgmPe74vbzYAncXkuw_j-2">
          <mxGeometry x="70" y="245" width="160" height="15" as="geometry" />
        </mxCell>
        <mxCell id="pgmPe74vbzYAncXkuw_j-12" value="Value" style="text;html=1;strokeColor=none;fillColor=none;align=center;verticalAlign=middle;whiteSpace=wrap;rounded=0;" vertex="1" parent="pgmPe74vbzYAncXkuw_j-2">
          <mxGeometry x="260" y="245" width="160" height="15" as="geometry" />
        </mxCell>
        <mxCell id="pgmPe74vbzYAncXkuw_j-13" value="server_container_url" style="text;html=1;strokeColor=none;fillColor=none;align=center;verticalAlign=middle;whiteSpace=wrap;rounded=0;" vertex="1" parent="pgmPe74vbzYAncXkuw_j-2">
          <mxGeometry x="70" y="270" width="160" height="15" as="geometry" />
        </mxCell>
        <mxCell id="pgmPe74vbzYAncXkuw_j-14" value="https://tracking.sujeet.pro" style="text;html=1;strokeColor=none;fillColor=none;align=center;verticalAlign=middle;whiteSpace=wrap;rounded=0;" vertex="1" parent="pgmPe74vbzYAncXkuw_j-2">
          <mxGeometry x="270" y="270" width="160" height="15" as="geometry" />
        </mxCell>
        <mxCell id="pgmPe74vbzYAncXkuw_j-15" value="Server Container" style="fillColor=none;strokeColor=#5A6C86;dashed=1;verticalAlign=top;fontStyle=0;fontColor=#5A6C86;whiteSpace=wrap;html=1;" vertex="1" parent="1">
          <mxGeometry x="700" y="238" width="420" height="280" as="geometry" />
        </mxCell>
        <mxCell id="pgmPe74vbzYAncXkuw_j-17" value="Server Tag 1" style="shape=process;whiteSpace=wrap;html=1;backgroundOutline=1;" vertex="1" parent="1">
          <mxGeometry x="960" y="300" width="120" height="60" as="geometry" />
        </mxCell>
        <mxCell id="pgmPe74vbzYAncXkuw_j-22" style="edgeStyle=orthogonalEdgeStyle;rounded=0;orthogonalLoop=1;jettySize=auto;html=1;entryX=0;entryY=0.5;entryDx=0;entryDy=0;" edge="1" parent="1" source="pgmPe74vbzYAncXkuw_j-18" target="pgmPe74vbzYAncXkuw_j-19">
          <mxGeometry relative="1" as="geometry" />
        </mxCell>
        <mxCell id="pgmPe74vbzYAncXkuw_j-23" style="edgeStyle=orthogonalEdgeStyle;rounded=0;orthogonalLoop=1;jettySize=auto;html=1;entryX=0;entryY=0.5;entryDx=0;entryDy=0;" edge="1" parent="1" source="pgmPe74vbzYAncXkuw_j-18" target="pgmPe74vbzYAncXkuw_j-20">
          <mxGeometry relative="1" as="geometry" />
        </mxCell>
        <mxCell id="pgmPe74vbzYAncXkuw_j-24" style="edgeStyle=orthogonalEdgeStyle;rounded=0;orthogonalLoop=1;jettySize=auto;html=1;entryX=0;entryY=0.5;entryDx=0;entryDy=0;" edge="1" parent="1" source="pgmPe74vbzYAncXkuw_j-18" target="pgmPe74vbzYAncXkuw_j-17">
          <mxGeometry relative="1" as="geometry" />
        </mxCell>
        <mxCell id="pgmPe74vbzYAncXkuw_j-18" value="Client" style="shape=process;whiteSpace=wrap;html=1;backgroundOutline=1;" vertex="1" parent="1">
          <mxGeometry x="750" y="370" width="120" height="60" as="geometry" />
        </mxCell>
        <mxCell id="pgmPe74vbzYAncXkuw_j-19" value="Server Tag 2" style="shape=process;whiteSpace=wrap;html=1;backgroundOutline=1;" vertex="1" parent="1">
          <mxGeometry x="960" y="370" width="120" height="60" as="geometry" />
        </mxCell>
        <mxCell id="pgmPe74vbzYAncXkuw_j-30" style="edgeStyle=orthogonalEdgeStyle;rounded=0;orthogonalLoop=1;jettySize=auto;html=1;" edge="1" parent="1" source="pgmPe74vbzYAncXkuw_j-20" target="pgmPe74vbzYAncXkuw_j-27">
          <mxGeometry relative="1" as="geometry" />
        </mxCell>
        <mxCell id="pgmPe74vbzYAncXkuw_j-20" value="Server Tag 3" style="shape=process;whiteSpace=wrap;html=1;backgroundOutline=1;" vertex="1" parent="1">
          <mxGeometry x="960" y="440" width="120" height="60" as="geometry" />
        </mxCell>
        <mxCell id="pgmPe74vbzYAncXkuw_j-21" style="edgeStyle=orthogonalEdgeStyle;rounded=0;orthogonalLoop=1;jettySize=auto;html=1;entryX=0;entryY=0.5;entryDx=0;entryDy=0;" edge="1" parent="1" source="pgmPe74vbzYAncXkuw_j-5" target="pgmPe74vbzYAncXkuw_j-18">
          <mxGeometry relative="1" as="geometry" />
        </mxCell>
        <mxCell id="pgmPe74vbzYAncXkuw_j-25" value="Google Analytics, Ads, etc" style="image;aspect=fixed;html=1;points=[];align=center;fontSize=12;image=img/lib/azure2/general/Tag.svg;" vertex="1" parent="1">
          <mxGeometry x="1160" y="171.2" width="68" height="66.8" as="geometry" />
        </mxCell>
        <mxCell id="pgmPe74vbzYAncXkuw_j-26" value="Internal Analytics" style="image;aspect=fixed;html=1;points=[];align=center;fontSize=12;image=img/lib/azure2/general/Tag.svg;" vertex="1" parent="1">
          <mxGeometry x="1160" y="300" width="68" height="66.8" as="geometry" />
        </mxCell>
        <mxCell id="pgmPe74vbzYAncXkuw_j-27" value="3rd party analytics" style="image;aspect=fixed;html=1;points=[];align=center;fontSize=12;image=img/lib/azure2/general/Tag.svg;" vertex="1" parent="1">
          <mxGeometry x="1160" y="417" width="68" height="66.8" as="geometry" />
        </mxCell>
        <mxCell id="pgmPe74vbzYAncXkuw_j-29" style="edgeStyle=orthogonalEdgeStyle;rounded=0;orthogonalLoop=1;jettySize=auto;html=1;entryX=-0.01;entryY=0.614;entryDx=0;entryDy=0;entryPerimeter=0;" edge="1" parent="1" source="pgmPe74vbzYAncXkuw_j-19" target="pgmPe74vbzYAncXkuw_j-26">
          <mxGeometry relative="1" as="geometry" />
        </mxCell>
        <mxCell id="pgmPe74vbzYAncXkuw_j-32" style="edgeStyle=orthogonalEdgeStyle;rounded=0;orthogonalLoop=1;jettySize=auto;html=1;entryX=0;entryY=0.496;entryDx=0;entryDy=0;entryPerimeter=0;" edge="1" parent="1" source="pgmPe74vbzYAncXkuw_j-17" target="pgmPe74vbzYAncXkuw_j-25">
          <mxGeometry relative="1" as="geometry" />
        </mxCell>
      </root>
    </mxGraphModel>
  </diagram>
</mxfile>
